<svg width="48" height="48" viewBox="0 0 48 48" fill="none" xmlns="http://www.w3.org/2000/svg">
<path d="M11.4359 39.9298V37.8061C11.4359 36.9937 10.9432 36.4617 10.0974 36.4617C9.67449 36.4617 9.21464 36.6019 8.89849 37.0638C8.65214 36.6762 8.29903 36.4617 7.76938 36.4617C7.41628 36.4617 7.06317 36.5689 6.78397 36.9566V36.5318H6.04492V39.9298H6.78397V38.0535C6.78397 37.4514 7.10013 37.1669 7.59283 37.1669C8.08553 37.1669 8.33188 37.4844 8.33188 38.0535V39.9298H9.07093V38.0535C9.07093 37.4514 9.42404 37.1669 9.87978 37.1669C10.3725 37.1669 10.6188 37.4844 10.6188 38.0535V39.9298H11.4359ZM22.3985 36.5318H21.1996V35.505H20.4606V36.5318H19.7913V37.204H20.4606V38.7628C20.4606 39.5421 20.7767 39.9999 21.6225 39.9999C21.9387 39.9999 22.2918 39.8927 22.5381 39.7525L22.3246 39.1133C22.1111 39.2535 21.8648 39.2906 21.6882 39.2906C21.3351 39.2906 21.1955 39.0762 21.1955 38.7256V37.204H22.3944V36.5318H22.3985ZM28.6723 36.4576C28.2494 36.4576 27.9661 36.672 27.7895 36.9524V36.5277H27.0504V39.9256H27.7895V38.0122C27.7895 37.4473 28.0359 37.1256 28.4957 37.1256C28.6353 37.1256 28.8119 37.1628 28.9556 37.1957L29.1691 36.4865C29.0213 36.4576 28.8119 36.4576 28.6723 36.4576ZM19.1919 36.8122C18.8387 36.5648 18.346 36.4576 17.8164 36.4576C16.9706 36.4576 16.4081 36.8823 16.4081 37.5545C16.4081 38.1195 16.831 38.4411 17.57 38.5442L17.9231 38.5813C18.3091 38.6514 18.5226 38.7586 18.5226 38.936C18.5226 39.1834 18.2393 39.3607 17.7466 39.3607C17.2539 39.3607 16.8638 39.1834 16.6175 39.0061L16.2644 39.571C16.6503 39.8555 17.18 39.9958 17.7096 39.9958C18.695 39.9958 19.2617 39.5339 19.2617 38.8988C19.2617 38.2968 18.8018 37.9793 18.0997 37.872L17.7466 37.8349C17.4304 37.7978 17.1841 37.7277 17.1841 37.5174C17.1841 37.27 17.4304 37.1298 17.8205 37.1298C18.2434 37.1298 18.6663 37.3071 18.8798 37.4143L19.1919 36.8122ZM38.8548 36.4576C38.4319 36.4576 38.1486 36.672 37.972 36.9524V36.5277H37.233V39.9256H37.972V38.0122C37.972 37.4473 38.2184 37.1256 38.6782 37.1256C38.8178 37.1256 38.9944 37.1628 39.1381 37.1957L39.3516 36.4947C39.2079 36.4576 38.9985 36.4576 38.8548 36.4576ZM29.4113 38.2308C29.4113 39.2576 30.1175 39.9999 31.2097 39.9999C31.7024 39.9999 32.0555 39.8927 32.4086 39.6122L32.0555 39.0102C31.7722 39.2246 31.493 39.3277 31.1727 39.3277C30.5733 39.3277 30.1504 38.903 30.1504 38.2308C30.1504 37.5916 30.5733 37.1669 31.1727 37.1339C31.4889 37.1339 31.7722 37.2411 32.0555 37.4514L32.4086 36.8494C32.0555 36.5648 31.7024 36.4617 31.2097 36.4617C30.1175 36.4576 29.4113 37.204 29.4113 38.2308ZM36.2476 38.2308V36.5318H35.5085V36.9566C35.2621 36.639 34.909 36.4617 34.4492 36.4617C33.4966 36.4617 32.7576 37.204 32.7576 38.2308C32.7576 39.2576 33.4966 39.9999 34.4492 39.9999C34.9419 39.9999 35.295 39.8226 35.5085 39.505V39.9298H36.2476V38.2308ZM33.5336 38.2308C33.5336 37.6287 33.9195 37.1339 34.5559 37.1339C35.1554 37.1339 35.5783 37.5957 35.5783 38.2308C35.5783 38.8329 35.1554 39.3277 34.5559 39.3277C33.9236 39.2906 33.5336 38.8287 33.5336 38.2308ZM24.6896 36.4576C23.7042 36.4576 22.998 37.1669 22.998 38.2267C22.998 39.2906 23.7042 39.9958 24.7265 39.9958C25.2192 39.9958 25.7119 39.8555 26.102 39.5339L25.7489 39.0019C25.4656 39.2164 25.1125 39.3566 24.7635 39.3566C24.3036 39.3566 23.8479 39.1421 23.7411 38.5442H26.2416C26.2416 38.437 26.2416 38.3669 26.2416 38.2597C26.2744 37.1669 25.638 36.4576 24.6896 36.4576ZM24.6896 37.0968C25.1494 37.0968 25.4656 37.3813 25.5354 37.9092H23.774C23.8438 37.4514 24.1599 37.0968 24.6896 37.0968ZM43.0509 38.2308V35.1875H42.3119V36.9566C42.0655 36.639 41.7124 36.4617 41.2526 36.4617C40.3 36.4617 39.561 37.204 39.561 38.2308C39.561 39.2576 40.3 39.9999 41.2526 39.9999C41.7453 39.9999 42.0984 39.8226 42.3119 39.505V39.9298H43.0509V38.2308ZM40.337 38.2308C40.337 37.6287 40.7229 37.1339 41.3593 37.1339C41.9588 37.1339 42.3817 37.5957 42.3817 38.2308C42.3817 38.8329 41.9588 39.3277 41.3593 39.3277C40.7229 39.2906 40.337 38.8287 40.337 38.2308ZM15.5951 38.2308V36.5318H14.8561V36.9566C14.6097 36.639 14.2566 36.4617 13.7968 36.4617C12.8442 36.4617 12.1052 37.204 12.1052 38.2308C12.1052 39.2576 12.8442 39.9999 13.7968 39.9999C14.2895 39.9999 14.6426 39.8226 14.8561 39.505V39.9298H15.5951V38.2308ZM12.8483 38.2308C12.8483 37.6287 13.2343 37.1339 13.8707 37.1339C14.4701 37.1339 14.893 37.5957 14.893 38.2308C14.893 38.8329 14.4701 39.3277 13.8707 39.3277C13.2343 39.2906 12.8483 38.8287 12.8483 38.2308Z" fill="white"/>
<path d="M30.0475 10.7256H18.9453V30.7586H30.0475V10.7256Z" fill="#FF5A00"/>
<path d="M19.6843 20.7423C19.6843 16.6722 21.5895 13.0598 24.5128 10.7258C22.3614 9.0268 19.6474 8 16.6871 8C9.67428 8 4 13.699 4 20.7423C4 27.7856 9.67428 33.4845 16.6871 33.4845C19.6474 33.4845 22.3614 32.4577 24.5128 30.7588C21.5853 28.4577 19.6843 24.8124 19.6843 20.7423Z" fill="#EB001B"/>
<path d="M45.0255 20.7423C45.0255 27.7856 39.3512 33.4845 32.3384 33.4845C29.3781 33.4845 26.6642 32.4577 24.5127 30.7588C27.473 28.4206 29.3412 24.8124 29.3412 20.7423C29.3412 16.6722 27.4361 13.0598 24.5127 10.7258C26.6601 9.0268 29.374 8 32.3343 8C39.3512 8 45.0255 13.7361 45.0255 20.7423Z" fill="#F79E1B"/>
</svg>
