<svg width="100" height="100" viewBox="0 0 100 100" fill="none" xmlns="http://www.w3.org/2000/svg">
<rect width="100" height="100" rx="50" fill="#5D8DEA"/>
<path fill-rule="evenodd" clip-rule="evenodd" d="M22.6465 31.6577H28.4483L31.6632 53.768L34.7992 31.6577H74.5508L73.2182 38.0087H39.6607L34.5642 67.0971H28.7621L22.6465 31.6577Z" fill="white"/>
<path fill-rule="evenodd" clip-rule="evenodd" d="M75.5709 58.8642C75.7278 62.3137 73.7677 67.5671 69.4551 67.5671C64.4377 67.5671 63.3398 61.3734 63.3398 58.7857H67.4169C67.4169 60.2752 68.6716 61.7652 69.6123 61.7652C70.5532 61.7652 71.4945 60.5889 71.4945 59.8052C71.4945 59.0208 71.1808 57.8451 69.6913 56.8257C64.8296 53.9246 63.732 50.5529 63.732 47.6521C63.5752 44.2023 65.2215 39.1058 69.5338 39.1058C73.8465 39.1058 75.0225 45.1433 75.0225 47.6521H71.1808C71.1808 46.2408 70.2398 45.2217 69.2991 45.2217C68.3582 45.2217 67.7306 46.1624 67.7306 46.9468C67.7306 47.7309 67.8875 48.4365 69.3776 49.4557C71.4158 50.3966 75.5709 53.4543 75.5709 58.8642ZM75.8038 65.5288C75.9688 65.5286 76.1324 65.5609 76.2849 65.624C76.4375 65.6871 76.5761 65.7796 76.6929 65.8964C76.8096 66.0131 76.9021 66.1517 76.9652 66.3043C77.0283 66.4568 77.0606 66.6204 77.0604 66.7854C77.0614 66.9511 77.0297 67.1154 76.967 67.2688C76.9044 67.4222 76.812 67.5616 76.6952 67.6791C76.5784 67.7967 76.4395 67.8899 76.2865 67.9535C76.1335 68.0172 75.9694 68.0499 75.8038 68.0498C75.6376 68.0503 75.4729 68.018 75.3193 67.9546C75.1657 67.8912 75.0261 67.7981 74.9086 67.6806C74.7911 67.5631 74.698 67.4235 74.6346 67.2699C74.5712 67.1163 74.5389 66.9516 74.5394 66.7854C74.5394 66.0898 75.1046 65.5288 75.8038 65.5288V65.2366C74.9422 65.2366 74.2468 65.9319 74.2468 66.7858C74.2465 66.9903 74.2866 67.1929 74.3647 67.3819C74.4429 67.571 74.5575 67.7427 74.7022 67.8874C74.8468 68.032 75.0186 68.1467 75.2076 68.2248C75.3966 68.303 75.5992 68.343 75.8038 68.3428C76.6573 68.3428 77.353 67.6474 77.353 66.7858C77.3523 66.3751 77.1889 65.9814 76.8985 65.691C76.6081 65.4006 76.2144 65.2372 75.8038 65.2366V65.5288Z" fill="white"/>
<path fill-rule="evenodd" clip-rule="evenodd" d="M75.4916 66.2048H75.8984C76.0606 66.2048 76.2978 66.2048 76.2978 66.4217C76.2978 66.6353 76.167 66.6789 75.9815 66.6745H75.4916V66.9238H75.8193L76.1907 67.6351H76.5742L76.1667 66.9238C76.4634 66.9039 76.6252 66.7772 76.6252 66.4734C76.6252 66.2994 76.5779 66.1372 76.4276 66.0389C76.3012 65.9598 76.1157 65.9555 75.9734 65.9555H75.1629V67.6351H75.4913V66.2048H75.4916ZM41.6991 57.6883L43.2673 47.4952L44.8355 57.6883H41.6991ZM40.7584 63.4117H45.6196L46.2468 67.0966H54.0088V52.5133L58.7916 67.0966H62.7902V39.9683H58.7131V53.7678L54.1657 39.9683H49.932V65.4503L45.5411 39.9683H40.9934L36.2891 67.0966H40.2877L40.7584 63.4117Z" fill="white"/>
</svg>
